 Full Credits to (Pitic):
 ######## ######## ######## ##          ######## ########  ######## ######
 ##       ##       ##       ##          ##       ##     ## ##       ##       
 ##       ##       ##       ##          ##       ##     ## ##       ##       
 ######   ######   ######   ##          ######   ########  ######   ######   
 ##       ##       ##       ##          ##       ##   ##   ##       ##       
 ##       ##       ##       ##          ##       ##    ##  ##       ##       
 ##       ######## ######## ########    ##       ##     ## ######## ######	

 
 Genre:Fantasy | Horror | Mystery
 Language:English
 IMDb:  http://www.imdb.com/title/tt1486185/
 Source:BluRay.x264-Felony
 Subtitles:Romana

 Format : MPEG-4
 Format profile : Base Media
 Codec ID : isom
 File size : 2.44 GiB
 Duration : 1h 40mn
 Overall bit rate : 3 481 Kbps

 Video
 ID : 1
 Format : AVC
 Format/Info : Advanced Video Codec
 Format profile : High@L4.1
 Format settings, CABAC : Yes
 Format settings, ReFrames : 3 frames
 Codec ID : avc1
 Codec ID/Info : Advanced Video Coding
 Duration : 1h 40mn
 Bit rate mode : Variable
 Bit rate : 3 000 Kbps
 Maximum bit rate : 9 082 Kbps
 Width : 1 280 pixels
 Height : 528 pixels
 Display aspect ratio : 2.40:1
 Frame rate mode : Constant
 Frame rate : 23.976 fps
 Color space : YUV
 Chroma subsampling : 4:2:0
 Bit depth : 8 bits
 Scan type : Progressive
 Bits/(Pixel*Frame) : 0.185
 Stream size : 2.13 GiB (87%)
 Writing library : x264

 Audio
 ID : 2
 Format : AAC
 Format/Info : Advanced Audio Codec
 Format version : Version 4
 Format profile : LC
 Format settings, SBR : No
 Codec ID : 40
 Duration : 1h 40mn
 Bit rate mode : Variable
 Bit rate : 445 Kbps
 Maximum bit rate : 510 Kbps
 Channel(s) : 6 channels
 Channel positions : Front: L C R, Side: L R, LFE
 Sampling rate : 48.0 KHz
 Stream size : 320 MiB (13%)


 Plot:
 Set in a medieval village that is haunted by a werewolf, a young girl falls 
 for an orphaned woodcutter, much to her family's displeasure.






 ----------------------------------                              http://thepiratebay.org/user/hiest
 ----------------------------------






 Screen Shots:
  http://www.pix2links.com/images/66201993164469572546.png
  http://www.pix2links.com/images/95366925568974444158.png
  http://www.pix2links.com/images/07660948801894168095.png
  http://www.pix2links.com/images/56657459535677203213.png


 Full Credits to (Pitic):
 ######## ######## ######## ##          ######## ########  ######## ######
 ##       ##       ##       ##          ##       ##     ## ##       ##       
 ##       ##       ##       ##          ##       ##     ## ##       ##       
 ######   ######   ######   ##          ######   ########  ######   ######   
 ##       ##       ##       ##          ##       ##   ##   ##       ##       
 ##       ##       ##       ##          ##       ##    ##  ##       ##       
 ##       ######## ######## ########    ##       ##     ## ######## ######